<svg width="1280" height="640" viewBox="0 0 1280 640" fill="none" xmlns="http://www.w3.org/2000/svg">
  <rect width="1280" height="640" fill="#F4F1EA"/>
  <rect x="48" y="48" width="1184" height="544" rx="28" fill="#FFFDF8" stroke="#1F3C35" stroke-width="4"/>
  <rect x="84" y="92" width="432" height="456" rx="24" fill="#1F3C35"/>
  <rect x="120" y="132" width="168" height="228" rx="18" fill="#D86F45"/>
  <rect x="144" y="156" width="120" height="16" rx="8" fill="#FFF6EE"/>
  <rect x="144" y="188" width="96" height="12" rx="6" fill="#F7D3C1"/>
  <rect x="144" y="212" width="84" height="12" rx="6" fill="#F7D3C1"/>
  <rect x="308" y="132" width="168" height="228" rx="18" fill="#8DAA91"/>
  <rect x="332" y="156" width="120" height="16" rx="8" fill="#F3F8F3"/>
  <rect x="332" y="188" width="96" height="12" rx="6" fill="#D5E3D6"/>
  <rect x="332" y="212" width="84" height="12" rx="6" fill="#D5E3D6"/>
  <rect x="120" y="388" width="356" height="112" rx="18" fill="#F4E8D8"/>
  <rect x="148" y="416" width="176" height="16" rx="8" fill="#1F3C35"/>
  <rect x="148" y="448" width="292" height="12" rx="6" fill="#6C7F79"/>
  <circle cx="868" cy="178" r="74" fill="#D86F45"/>
  <rect x="842" y="134" width="52" height="88" rx="18" fill="#FFF6EE"/>
  <rect x="850" y="148" width="36" height="8" rx="4" fill="#D86F45"/>
  <rect x="850" y="166" width="36" height="36" rx="10" stroke="#D86F45" stroke-width="6"/>
  <path d="M876 244C876 266.091 858.091 284 836 284H814V254C814 231.909 831.909 214 854 214H876V244Z" fill="#F3B596"/>
  <path d="M920 150H1132" stroke="#1F3C35" stroke-width="10" stroke-linecap="round"/>
  <path d="M920 196H1088" stroke="#5F736D" stroke-width="10" stroke-linecap="round"/>
  <path d="M920 242H1144" stroke="#5F736D" stroke-width="10" stroke-linecap="round"/>
  <path d="M920 326H1138" stroke="#1F3C35" stroke-width="10" stroke-linecap="round"/>
  <path d="M920 372H1104" stroke="#5F736D" stroke-width="10" stroke-linecap="round"/>
  <path d="M920 418H1148" stroke="#5F736D" stroke-width="10" stroke-linecap="round"/>
  <rect x="918" y="470" width="188" height="58" rx="29" fill="#1F3C35"/>
  <rect x="1122" y="470" width="96" height="58" rx="29" fill="#D86F45"/>
  <text x="920" y="98" fill="#1F3C35" font-family="Segoe UI, Arial, sans-serif" font-size="28" font-weight="700">Mobile Library PWA</text>
  <text x="920" y="514" fill="#FFFDF8" font-family="Segoe UI, Arial, sans-serif" font-size="24" font-weight="700">Books · Members · Loans</text>
  <text x="1148" y="508" fill="#FFF6EE" font-family="Segoe UI, Arial, sans-serif" font-size="22" font-weight="700">Scan</text>
</svg>
